<?xml version="1.0" standalone="no"?>
<!DOCTYPE svg PUBLIC "-//W3C//DTD SVG 20010904//EN"
 "http://www.w3.org/TR/2001/REC-SVG-20010904/DTD/svg10.dtd">
<svg version="1.0" xmlns="http://www.w3.org/2000/svg"
 width="512.000000pt" height="512.000000pt" viewBox="0 0 512.000000 512.000000"
 preserveAspectRatio="xMidYMid meet">
<metadata>
Created by potrace 1.11, written by Peter Selinger 2001-2013
</metadata>
<g transform="translate(0.000000,512.000000) scale(0.100000,-0.100000)"
fill="#000000" stroke="none">
<path d="M0 2560 l0 -2560 80 0 80 0 0 315 0 315 85 0 85 0 0 -275 0 -275 124
0 125 0 3 -37 3 -38 63 -3 62 -3 0 316 0 315 85 0 85 0 0 -310 0 -310 85 0 85
0 0 311 0 310 173 -3 c144 -2 178 -6 210 -22 59 -29 90 -77 95 -147 6 -87 -4
-124 -45 -164 -20 -19 -30 -35 -23 -35 27 0 79 -51 95 -95 17 -43 17 -96 0
-137 -6 -16 0 -18 69 -18 l76 0 0 310 0 310 163 0 c89 0 179 -5 200 -11 153
-42 188 -271 54 -358 l-37 -24 63 -119 62 -119 44 3 43 3 92 310 92 310 95 3
95 3 78 -268 c44 -147 86 -289 93 -316 l15 -47 64 0 64 0 0 315 0 315 164 0
c95 0 177 -5 197 -11 50 -17 99 -57 114 -93 46 -113 19 -217 -74 -277 l-24
-15 64 -117 63 -117 73 0 73 0 0 315 0 315 80 0 80 0 0 -310 0 -310 90 0 90 0
0 310 0 310 220 0 220 0 0 -70 0 -70 -140 0 -140 0 0 -70 0 -70 105 0 105 0 0
-62 0 -63 -102 0 -103 0 -3 -72 -3 -73 141 0 140 0 0 -40 0 -40 76 0 c82 0 79
-3 57 58 -5 12 36 34 90 47 22 6 28 3 36 -17 5 -13 21 -38 36 -56 23 -28 33
-32 74 -32 56 0 81 21 81 68 0 46 -40 85 -136 134 -47 23 -101 56 -121 72
-118 97 -86 290 59 350 21 9 66 16 103 16 100 0 164 -33 218 -112 15 -23 27
-44 27 -48 0 -4 -23 -17 -50 -30 l-51 -24 -29 36 c-34 42 -86 63 -130 53 -42
-9 -60 -31 -60 -70 0 -41 35 -73 140 -130 137 -74 189 -150 178 -265 l-5 -50
58 0 59 0 0 2560 0 2560 -2560 0 -2560 0 0 -2560z m494 -994 c46 -27 106 -96
106 -122 0 -14 -69 -54 -93 -54 -7 0 -19 10 -26 23 -18 35 -63 57 -113 57 -54
0 -81 -25 -80 -71 1 -43 26 -66 132 -124 175 -94 229 -206 166 -342 -30 -63
-78 -96 -163 -113 -131 -26 -259 39 -302 153 -10 25 -8 26 51 46 34 12 62 20
62 18 9 -26 42 -65 68 -79 74 -40 152 -12 152 56 0 48 -34 82 -134 136 -147
79 -192 136 -192 241 0 95 56 169 150 200 15 4 59 7 98 5 56 -2 82 -9 118 -30z
m2480 5 c54 -27 101 -84 117 -144 14 -52 12 -400 -3 -449 -16 -53 -69 -112
-126 -139 -38 -19 -63 -23 -132 -23 -123 2 -196 40 -243 128 -20 37 -22 58
-25 231 -4 225 4 275 54 334 61 70 116 92 229 88 60 -2 93 -9 129 -26z m-2094
-256 c0 -343 4 -355 118 -355 44 0 54 4 76 31 l26 31 0 284 0 284 86 0 86 0
-4 -292 c-4 -332 -8 -350 -85 -419 -52 -47 -101 -63 -193 -63 -117 1 -197 43
-243 129 -21 38 -22 55 -25 343 l-3 302 80 0 81 0 0 -275z m990 205 l0 -70
-145 0 -145 0 0 -90 0 -90 125 0 125 0 0 -65 0 -64 -122 -3 -123 -3 -3 -157
-3 -158 -79 0 -80 0 0 385 0 385 225 0 225 0 0 -70z m580 0 l0 -70 -145 0
-145 0 0 -90 0 -90 125 0 125 0 0 -65 0 -64 -122 -3 -123 -3 -3 -157 -3 -158
-79 0 -80 0 0 385 0 385 225 0 225 0 0 -70z m970 -240 l0 -310 125 0 125 0 0
-75 0 -75 -210 0 -210 0 0 385 0 385 85 0 85 0 0 -310z m542 138 l3 -172 99
172 99 172 88 0 c49 0 89 -2 89 -5 0 -3 -49 -79 -110 -170 l-109 -164 115
-201 c63 -111 118 -208 121 -216 5 -12 -9 -14 -83 -12 l-89 3 -49 90 c-27 50
-65 121 -86 158 l-37 68 -26 -40 c-24 -36 -27 -49 -29 -158 l-3 -118 -77 -3
-78 -3 0 386 0 385 80 0 80 0 2 -172z"/>
<path d="M2790 1457 c-60 -20 -70 -55 -70 -250 0 -227 16 -261 119 -259 33 0
50 6 70 26 l26 26 0 205 0 205 -25 24 c-31 29 -74 38 -120 23z"/>
<path d="M1210 410 l0 -90 68 0 c37 0 72 4 78 8 40 27 46 111 9 147 -21 22
-33 25 -90 25 l-65 0 0 -90z"/>
<path d="M1870 411 l0 -91 65 0 c83 0 105 18 105 88 0 72 -14 85 -99 90 l-71
4 0 -91z"/>
<path d="M3140 410 l0 -90 68 0 c87 0 107 17 107 92 0 69 -24 88 -111 88 l-64
0 0 -90z"/>
<path d="M2566 460 c-3 -8 -19 -70 -34 -137 l-29 -123 68 0 c38 0 69 3 69 8
-1 32 -69 264 -74 252z"/>
<path d="M1210 105 l0 -95 79 0 c86 0 105 9 117 56 10 39 -3 97 -27 117 -16
13 -40 17 -95 17 l-74 0 0 -95z"/>
<path d="M1870 101 l0 -101 81 0 c94 0 92 -8 30 120 -35 72 -38 75 -74 78
l-37 3 0 -100z"/>
<path d="M3140 100 l0 -100 80 0 c57 0 80 4 80 12 0 7 -19 52 -42 100 l-41 88
-39 0 -38 0 0 -100z"/>
<path d="M2466 58 c-15 -58 -16 -58 110 -58 l116 0 -7 32 c-4 18 -9 36 -12 41
-2 4 -48 7 -102 7 -94 0 -99 -1 -105 -22z"/>
</g>
</svg>
