<svg xmlns="http://www.w3.org/2000/svg" width="174" height="86" fill="none" viewBox="0 0 174 86"><path fill="none" d="M0 0h174v86H0z"/><path fill="#E53F76" d="m20.8 19.4 1.2 23 12.6-.7-.3-4.2-7.8.4-1-18.7-4.7.2ZM36 18.6l1.2 23 13.7-.8-.2-4-8.8.4-.3-5.8 6.3-.4-.1-3.6-6.4.3-.3-5.2 8.5-.4-.2-4.2-13.4.7ZM51 17.8l.2 4.2 5.2-.2 1 18.7 4.8-.3-1-18.7 5.1-.3-.2-4.2-15 .8ZM68.6 20.4l1.5.1c0 1.3-.2 2.5-.6 3.7l1.6.5a9.6 9.6 0 0 0 1.5-5.8l-.1-3.3-4.1.2.2 4.6ZM81.8 15.9c-4.2.2-6.7 3.1-6.6 6.6.4 7.3 10.3 6.3 10.6 10.7 0 1.6-.8 2.4-2.7 2.5a4 4 0 0 1-4-2.8l-3.6 1.4c1 3.4 4.3 5.3 7.8 5.2 4.5-.3 7.2-2.8 7-7.1C89.9 25 80.2 25.8 80 22c0-1.3.6-2.2 2.5-2.3 1.6-.1 3 .7 3.8 2.5l3.2-1.7a7.4 7.4 0 0 0-7.7-4.6ZM106 14.6c-5.6.3-8.2 3.8-7.9 9l.4 6.9c.3 5.4 3.3 8 7.7 7.8 2-.1 3.5-.8 4.7-2v1.4l4-.2-.6-11.9-6.8.4.2 3.1 2.5-.1.2 3.4a3.5 3.5 0 0 1-3 1.7c-2.5.2-4-1-4-4l-.4-6.7c-.2-3.1 1-4.6 3.7-4.8 1.7 0 2.9.6 3.8 2.4l3.5-1.4c-1-3.3-4-5.2-8-5ZM117.3 14.3l1.2 23 13.6-.7-.2-4.1-8.8.4-.3-5.8 6.4-.3-.2-3.7-6.4.3-.2-5.1 8.4-.5-.2-4.2-13.3.7ZM132.3 13.6l.2 4.2 5.1-.3 1 18.7 4.8-.2-1-18.8 5.2-.2-.2-4.2-15.1.8ZM29.2 48.7c-4.6.2-7.4 3.4-7.2 8.3l.5 8.2c.2 4.5 3.3 7.3 8 7 3.8-.1 6-2 6.7-5.7l-3.6-1c-.4 2-1.3 2.8-3 2.9-2 0-3.1-1.2-3.2-3.5l-.5-8.2c-.1-2.5.8-4 3-4 1.6-.1 2.6.8 3.1 2.4l3.5-1.5a7 7 0 0 0-7.3-5ZM51.1 70.9l5.3-.3-5.4-9.8c2.4-1 3.5-3.3 3.3-6.4-.2-4-2.5-6.6-7.7-6.3l-7.6.4 1.2 23 4.9-.3-.5-9 2.1-.1 4.4 8.8Zm-7-18.7 2.6-.1c2-.2 2.7.6 2.8 3 .1 2-.3 3.2-2.4 3.3l-2.7.2-.3-6.4ZM57.5 47.5l1.2 23 13.6-.7-.2-4.2-8.8.5-.3-5.8 6.4-.4-.2-3.6-6.4.3-.2-5.2L71 51l-.2-4.2-13.3.7ZM79.3 64.6l6.8-.4 1.5 4.8 5-.3-8-22.6-5.6.3-5.6 23.3 5-.3.9-4.8Zm2.6-13.8 3.1 9.8-5 .3 2-10.1ZM90.4 45.8l.2 4.2 5.2-.3 1 18.8 4.8-.3-1-18.7 5.1-.3-.2-4.2-15 .8ZM108.3 44.9l1.2 23 4.8-.3-1.2-23-4.8.3ZM134.9 43.5l-5.4.2-3.3 17.5-5.3-17-5.3.3 8.3 22.6 5-.3 6-23.3ZM137 43.4l1.2 22.9 13.7-.7-.3-4.1-8.7.4-.3-5.8 6.3-.3-.2-3.7-6.3.3-.3-5.1 8.5-.5-.3-4.1-13.3.7Z"/></svg>