<svg xmlns="http://www.w3.org/2000/svg" fill="none" viewBox="0 0 199 84.5"><path fill="#333" d="M74.52 79.05v6.86h5.96l-3.2-6.86h-2.76zM126.08 71.44c0-2.28-.78-3.08-3.08-3.08h-3.23v6.48h3.2c2.33 0 3.07-1.01 3.07-3.35M57.56 71.44c0-2.28-.78-3.08-3.08-3.08h-3.23v6.48h3.23c2.33 0 3.08-1.01 3.08-3.35M96.01 83.34l-.64 2.57h8.48l-.65-2.57H96zM119.77 79.05v6.86h5.97l-3.19-6.86h-2.78zM99.54 68.93l-2.49 10.12h5.08l-2.51-10.12h-.08zM80.83 71.44c0-2.28-.8-3.08-3.08-3.08H74.5v6.48h3.25c2.31 0 3.08-1.01 3.08-3.35M58.27 82.53c0-2.7-.85-3.57-3.22-3.57h-3.8v6.93h3.82c2.28 0 3.2-.87 3.2-3.36zM108.79 33.97c-2.7 0-3.96 1.39-3.96 4.84v8.75c0 3.57 1.25 5 3.96 5 2.7 0 3.9-1.47 3.9-5v-8.75c0-3.45-1.2-4.84-3.9-4.84z"/><path fill="#333" d="M0 0v85.91h13.85V63.55h6.1v19.8h8.92v2.56h4.69V63.55h5.75V85.9h6.18V63.55h8.7c6.04 0 8.52 3.08 8.52 7.12 0 2.98-.9 4.92-3.37 5.9a5.92 5.92 0 014.55 6.33 5.74 5.74 0 01-.88 2.96h5.6V63.55h9.03c6.11 0 8.72 2.87 8.72 7.34a6.47 6.47 0 01-4.3 6.72l4.37 8.3h3.22l6.63-22.36h6.54l6.61 22.36h4.62V63.55h8.9c6.14 0 8.74 2.87 8.74 7.34a6.5 6.5 0 01-4.3 6.72l4.48 8.3h5.34V63.55h5.76V85.9h6.17V63.55h15.82v4.97h-10.03v5.2h7.55v4.37h-7.55v5.34H165V86h5.24c-.33-.8-.6-1.63-.8-2.48l4.3-1.5a6.8 6.8 0 002.64 3.98h3.14a2.37 2.37 0 001.43-2.44c0-5.19-11.82-4.17-11.82-12.81 0-4.17 3.17-7.49 8.2-7.49a8.91 8.91 0 018.9 5.99l-3.91 1.78a4.44 4.44 0 00-4.56-3.31c-2.27 0-3.09 1.01-3.09 2.6 0 4.5 11.53 4.28 11.53 12.92.01.9-.11 1.8-.35 2.67H199V0H0zm21.1 57.18a9 9 0 01-8.91-6.54l4.33-1.5a4.83 4.83 0 004.61 3.57c2.3 0 3.32-.9 3.32-2.74 0-5.19-11.8-4.62-11.8-13.26 0-4.19 3.16-7.48 8.18-7.48a8.91 8.91 0 018.91 5.96l-3.9 1.79a4.46 4.46 0 00-4.46-3.25c-2.24 0-3.08 1.02-3.08 2.6 0 4.51 11.55 4.28 11.55 12.92 0 5.08-3.42 7.93-8.7 7.93h-.05zm32.04-9.51c0 5.92-3.56 9.51-9.66 9.51s-9.73-3.56-9.73-9.24V29.56h5.8v18.41a3.56 3.56 0 003.93 4.14c2.57 0 3.9-1.27 3.9-4.14v-18.4h5.76v18.1zm21.54-13.15H64.44v6.6h8.75v4.6h-8.75v11.1h-5.8V29.55h16.04v4.96zm20.62 0H85.07v6.6h8.75v4.6h-8.75v11.1h-5.79V29.55h16.04l-.02 4.96zm23.17 13.04c0 5.86-3.42 9.62-9.7 9.62-6.27 0-9.69-3.72-9.69-9.62v-8.75c0-5.86 3.42-9.62 9.71-9.62 6.3 0 9.7 3.76 9.7 9.62l-.02 8.75zm20.06 9.25h-14.95V29.56h6.1v22.2h8.9l-.05 5.05zm18.32 0l-6-11.28-2.05 2.94v8.34h-5.72V29.56h5.72v12.67l7.32-12.67h6.5l-8.03 12.07 8.68 15.18h-6.42z"/></svg>