<svg version="1.1" id="Layer_1" xmlns="http://www.w3.org/2000/svg" x="0" y="0" width="100%" viewBox="0 0 2244 1063" xml:space="preserve">
  <path d="M1969 1064c-34.690063 0-69.380005 0-104.532959-.468628-.462891-18.55603-.462891-36.64331-.462891-55.149414h-117.475952v-78.053345h85.112183v-49.447632h-85.261597v-68.999145h113.234986v-56.029785h-179.130127v5.809021c.000244 98.813598.003418 197.627136-.01941 296.440735-.000488 1.966064-.302856 3.932129-.464233 5.898193-21.690063 0-43.380005 0-65.744995-.427124-.674927-102.816956-.674927-205.206726-.674927-307.729248h-65.42456v5.836426c.000122 98.778076.001098 197.556152-.006104 296.334228-.000122 1.995239-.097412 3.990479-.149414 5.985718-12.690063 0-25.380005 0-38.402832-.361206-21.795288-44.99231-43.258057-89.623474-64.788452-134.395569 23.138916-9.233398 37.118042-26.065308 43.744263-49.143371 6.050903-21.073975 6.297119-42.478333 1.13208-63.692139-6.704956-27.53772-23.890015-45.727356-50.922242-54.602234-13.592651-4.462524-27.579956-6.206421-41.770385-6.268494-33.490357-.146667-66.981812-.049865-100.472901-.037658-1.443115.000549-2.88623.138366-4.519531.221984V1064c-8.023315 0-16.046753 0-24.475586-.394531-.464477-.721924-.493042-1.058594-.586914-1.375733-27.395752-92.460205-54.791138-184.92041-82.202881-277.375854-2.910522-9.81659-5.91626-19.604981-8.865356-29.365235-22.984009 0-45.468384.149598-67.947632-.119628-4.796021-.057373-6.6875 1.305847-8.078003 6.022827-27.407349 92.969604-55.052612 185.869018-82.582336 278.80249-2.329346 7.863403-4.185364 15.867187-6.261292 23.805664-6.023376 0-12.046814 0-18.309692-.32959-21.757508-44.966736-43.275452-89.603699-64.868897-134.397461 26.134461-10.479065 40.034729-30.372375 45.710083-56.73053 3.184876-14.791809 3.419373-29.768615 1.399841-44.709533-4.131408-30.565552-19.247497-53.069092-48.708679-64.507996-14.921448-5.793518-30.605285-7.746643-46.506469-7.800964-32.989502-.112732-65.979554-.034363-98.969422-.034546h-5.585693v6.115356c.000061 98.802918.000976 197.605774-.006592 296.408692-.000183 1.995483-.100708 3.991089-.15448 5.986572-41.356628 0-82.713318 0-124.836548-.351196 3.840454-1.460938 8.450318-2.559449 13.054077-3.682617 27.036804-6.595337 46.392151-21.816163 54.460266-49.253785 5.197937-17.677124 6.112-35.818481 3.062195-53.914734-3.410827-20.238586-13.531799-36.332031-32.121643-46.151123-5.480041-2.89447-11.352722-5.045837-17.398559-7.69226 1.496337-.713806 2.935302-1.39917 4.373413-2.086365 16.009033-7.648926 26.861938-19.941467 30.189453-37.348023 2.22821-11.655761 3.470642-23.833862 2.798279-35.644104-1.647156-28.932067-15.698426-50.345642-42.44458-62.541931-16.336304-7.449402-33.814026-9.726379-51.579224-9.803405-31.829224-.13794-63.659485-.038392-95.489319-.038147-1.615784.000061-3.231567 0-5.06781 0V1064c-23.356659 0-46.713318 0-70.533051-.468628-.463073-102.880127-.463073-205.291626-.463073-307.680054h-65.520172v5.80658c.000488 98.814697.003753 197.629333-.018799 296.444031-.000427 1.966064-.303192 3.932007-.464905 5.898071-16.690002 0-33.379974 0-50.749695-.425171-.679687-19.052612-.679687-37.680054-.679687-56.769714h-97.68573V755.819946H156V1064H1.010539C1.007026 709.703491 1.007026 355.406952 1.007026 1.055211h2243.835992V1064c-65.92627 0-131.919678 0-198.711182-.293945-.18811-.765259.351685-1.437378 1.041992-1.6792 33.951904-11.890869 52.532715-36.009277 56.349121-71.50476 2.953369-27.468262-3.439209-52.165406-22.961181-72.666809-11.977784-12.57898-26.386719-21.736878-41.433228-30.060974-14.965698-8.27948-30.222778-16.102295-44.691894-25.177674-6.420167-4.026977-12.276368-9.926391-16.534791-16.228332-9.482666-14.032593-3.678833-34.840271 11.121827-40.0719 18.173095-6.423706 35.732177-4.599975 51.467407 7.497986 8.266479 6.355713 13.182983 15.147705 17.234985 24.883362 14.938721-6.612 29.59375-13.098328 44.395264-19.649475-7.912354-20.052612-19.017578-37.205872-36.623535-49.255249-28.788819-19.702942-60.690674-23.231262-93.586426-14.547425-70.798828 18.689637-78.137329 100.046692-40.763184 138.63678 12.938843 13.359803 28.382813 22.918213 44.416748 31.82843 15.380494 8.547242 30.908814 16.86908 45.905274 26.052308 9.504028 5.819946 16.879394 14.041198 19.990845 25.260803 4.79663 17.296325-2.57251 32.790466-17.869263 37.622803-25.846069 8.164917-53.18811-3.046326-65.852417-27.072693-1.759888-3.339051-3.19043-6.851685-4.879517-10.514099-16.342041 5.695861-32.560058 11.34851-48.85852 17.029235 3.290161 12.498352 8.575439 23.505799 16.071533 33.406189 11.9729 15.813233 27.496582 26.828492 46.019165 33.77295 1.14917.430908 1.946777 1.799438 2.907959 2.731689m-849.714478-606.113037c-.375 8.306732-1.037475 16.612183-1.073486 24.92038-.130737 30.152008-.282471 60.307708.076294 90.456024.12207 10.26355.875488 20.673645 2.811279 30.733703 6.709473 34.866455 25.871827 60.081177 59.68335 72.673401 23.614136 8.794373 48.133057 9.598572 72.820923 5.709961 20.830444-3.280945 39.604492-11.237244 54.83313-26.250305 20.236206-19.949707 28.517212-45.118103 29.20874-72.660828.861206-34.294311.446899-68.625.26355-102.938263-.051392-9.620178-.431031-19.368835-2.027222-28.82788-6.695923-39.682221-28.155518-67.242188-67.576538-78.811768-27.321167-8.018402-54.950195-7.665894-82.18689.441681-22.119751 6.584411-39.823242 19.598602-51.981079 39.538055-8.272949 13.568085-12.641845 28.475952-14.852051 45.015839m-673.773437-5.386658v-80.424988H379.82843v5.630768c.000092 67.333191-.075226 134.666596.09552 201.999359.021393 8.446106.623871 17.023804 2.182556 25.309937 6.69574 35.595459 26.736939 60.299072 61.329224 72.134338 27.846558 9.527405 56.299194 9.848145 84.598267 2.492676 27.691711-7.197571 48.516906-23.488159 60.810546-49.803589 8.127869-17.398498 10.634644-35.934387 10.648499-54.899231.048279-65.83316.01947-131.666412.019958-197.499603 0-1.774201-.000061-3.548401-.000061-5.294586h-65.515808c0 2.129486-.000061 3.943634-.000061 5.757751 0 53.166565.000244 106.33313.000183 159.499695 0 15.666626.151307 31.335083-.036682 46.999451-.272278 22.69873-11.032104 37.043213-30.964782 41.12622-5.009308 1.026123-10.26651 1.348572-15.39032 1.219971-19.900543-.499328-33.782929-9.605469-38.937073-26.171448-1.991272-6.400085-2.980377-13.362732-3.022278-20.077819-.264435-42.331604-.134064-84.665619-.134033-127.998902m1291.545898 168.937927c9.781861 18.31604 19.651001 36.586548 29.257569 54.994202 1.561279 2.991882 3.307983 3.834229 6.523803 3.812378 21.158936-.143616 42.319214-.07019 63.479126-.082336 1.384766-.000794 2.769532-.123658 4.584961-.210205-1.35083-2.410462-2.379882-4.279297-3.438842-6.131226-30.741211-53.769104-61.455689-107.553406-92.303589-161.261231-1.80774-3.147552-1.849732-5.236114.229126-8.33432 28.339233-42.235839 56.51416-84.581909 84.723266-126.905059 1.059204-1.589325 2.055054-3.22107 3.384766-5.311402-1.654053-.08313-2.602417-.172058-3.550781-.172424-22.159546-.008209-44.319825.082397-66.477784-.103455-3.328369-.027893-4.572631 1.573975-5.974975 4.007141-22.564697 39.14682-45.187866 78.259888-67.812256 117.372193-3.862427 6.677093-7.793823 13.314239-11.693237 19.969787-.290894-.094848-.581787-.189758-.872681-.284607V372.027252h-64.346191v307.897309h64.398437c0-1.871094.000122-3.5.000122-5.128846.000244-28.324218-.016235-56.648559.040772-84.972656.00354-1.752808.062988-3.862121.97998-5.199951 7.233032-10.551025 14.680908-20.954712 22.299439-31.73877 12.228027 22.857544 24.266479 45.360901 36.568969 68.553894M294.868744 518.637329c-8.488434-5.228027-16.851288-10.674805-25.493561-15.634766-14.393036-8.260314-29.328918-15.637725-43.300827-24.540985-6.512833-4.150085-12.508575-10.243896-16.626999-16.786041-8.861831-14.077057-2.782364-34.094604 11.661347-39.234802 18.00119-6.40622 35.381775-4.554657 51.053253 7.18576 8.493713 6.363099 13.494415 15.317261 17.627685 25.214753 14.95282-6.61905 29.588959-13.097931 44.384796-19.647492-8.496826-21.619202-20.835418-39.629639-40.335998-51.826477-26.394775-16.50882-55.347656-19.489563-85.075104-13.161926-31.33786 6.670379-54.218902 24.726105-63.552261 56.163666-9.559311 32.198608-3.46492 61.592773 20.530075 86.171814 14.753097 15.112182 33.252884 24.721008 51.653671 34.433898 15.125519 7.984009 30.764588 15.161744 43.626419 26.812561 7.51355 6.806092 12.789795 14.979859 13.548767 25.329224 1.141541 15.565674-4.303619 27.467713-18.976638 31.623779-26.071091 7.384644-52.150452-1.84375-65.598114-26.600097-1.873093-3.448242-3.340912-7.116577-5.11113-10.93042-16.465866 5.743835-32.661118 11.39331-48.870117 17.047546 6.608627 23.797547 19.68927 42.318604 39.714874 55.686951 28.251877 18.859924 59.314178 22.036743 91.846924 15.396973 19.960998-4.073914 37.471038-12.948182 50.272979-29.215882 17.890137-22.733215 21.294739-48.985534 16.467194-76.580444-4.297058-24.5625-19.294373-42.212769-39.447235-56.907593m762.630402-146.809021H895.108093v308.081665h65.36615v-125.04303h98.659058v-52.528289h-98.35669v-74.483551h114.453736v-56.026795h-17.731201m-279.99878 130.658936h-49.806824v-74.506317h114.596863v-55.807953H662.040894v307.788025h65.515014V554.856812h98.643189v-52.369507c-16.106507 0-31.902588 0-48.698731-.000061M1531.5 622.998718h-72.699463V372.095184h-63.521484v307.742462h168.957641v-56.838928H1531.5z"/>
  <path fill="#FEFEFE" d="M514.468628 1064C514 961.352905 514 858.705811 514 755.49231c1.836243 0 3.452026.000061 5.06781 0 31.829834-.000245 63.660095-.099793 95.489319.038147 17.765198.077026 35.24292 2.354003 51.579224 9.803405 26.746154 12.196289 40.797424 33.609864 42.44458 62.541931.672363 11.810242-.570069 23.988343-2.798279 35.644104-3.327515 17.406556-14.18042 29.699097-30.189453 37.348023-1.438111.687195-2.877076 1.372559-4.373413 2.086365 6.045837 2.646423 11.918518 4.79779 17.398559 7.69226 18.589844 9.819092 28.710816 25.912537 32.121643 46.151123 3.049805 18.096253 2.135742 36.23761-3.062195 53.914734-8.068115 27.437622-27.423462 42.658448-54.460266 49.253785-4.603759 1.123168-9.213623 2.221679-13.519104 3.682617C604.979126 1064 559.958191 1064 514.468628 1064m142.478943-104.262878c-.174378-1.15033-.313843-2.30719-.528198-3.450013-3.12201-16.638671-9.356141-23.323974-26.297364-24.732238-14.221618-1.182251-28.602966-.447754-42.913574-.552918-2.931457-.021484-5.863098-.003174-8.736633-.003174v80.002808c2.117859 0 3.933349.0047 5.74884-.000733 14.315552-.042541 28.654419.410584 42.940796-.25769 17.59552-.823059 26.41217-8.830078 29.039185-26.270142 1.175964-7.806518.58612-15.879089.746948-24.7359m-7.948487-122.903138c-2.28186-17.79425-8.379272-24.343628-26.26361-26.104309-10.23584-1.007751-20.627564-.447815-30.949402-.559143-4.432862-.047851-8.866638-.007995-13.296326-.007995v71.799743c15.612549 0 30.933899.688477 46.161804-.208801 13.162903-.775635 21.287415-8.989075 23.257569-22.106689 1.079162-7.18573.781982-14.578125 1.089965-22.812806zM775.468628 1064c-.414856-1.995483-.314331-3.991089-.314148-5.986572.007568-98.802918.006653-197.605774.006592-296.408692v-6.115356h5.585693c32.989868.000183 65.97992-.078186 98.969422.034546 15.901184.054321 31.585021 2.007446 46.506469 7.800964 29.461182 11.438904 44.577271 33.942444 48.708679 64.507996 2.019532 14.940918 1.785035 29.917724-1.399841 44.709533-5.675354 26.358155-19.575622 46.251465-45.710083 56.73053 21.593445 44.793762 43.111389 89.430725 64.403931 134.397461-23.57959.32959-46.933777.32959-70.528137-.00354-4.930664-11.128174-9.61316-21.926758-14.313172-32.717773-12.179626-27.963929-24.339294-55.936707-36.625671-83.853699-.682129-1.549988-2.397034-3.698853-3.702698-3.750122-8.580322-.336914-17.180237-.173889-26.055664-.173889V1064h-65.531372M873.4646 894.162415c2.162414-.054932 4.324951-.106202 6.487243-.165345 16.104309-.440674 25.809632-8.151489 29.358094-23.847595 2.860961-12.65448 2.690673-25.476501.285217-38.160156-2.431458-12.821289-10.065857-21.11084-23.408631-22.105652-12.416992-.925659-24.924377-.645142-37.392334-.87561-2.578979-.047669-5.159484-.006897-7.511352-.006897v85.161438c10.584289 0 20.888061 0 32.181763-.000183zM1292.468628 1064C1292 961.368591 1292 858.737183 1292 755.721313c1.633301-.083618 3.076416-.221435 4.519531-.221984 33.491089-.012207 66.982544-.109009 100.472901.037658 14.190429.062073 28.177734 1.80597 41.770385 6.268494 27.032227 8.874878 44.217286 27.064514 50.922242 54.602234 5.165039 21.213806 4.918823 42.618164-1.13208 63.692139-6.626221 23.078063-20.605347 39.909973-43.744263 49.143371 21.530395 44.772095 42.993164 89.403259 64.323608 134.395569-23.486572.361206-46.84082.361206-70.453857.021851-5.131958-11.601075-9.979614-22.874024-14.883545-34.122437-11.994995-27.513916-23.987793-55.028992-36.102173-82.490356-.678955-1.539124-2.407227-3.656617-3.717041-3.707398-8.591187-.333252-17.20166-.171692-25.62561-.171692-.272461.859863-.455811 1.167969-.455567 1.476013.026367 39.785096.066162 79.570191.105469 119.355225h-65.531372m135.529907-206.682983c-.332275-7.638001-.162964-15.33844-1.103882-22.900696-1.834961-14.748718-9.199585-22.871948-23.823974-24.479187-12.191895-1.339844-24.601441-.708863-36.914917-.929077-2.749512-.049134-5.500733-.007203-7.993775-.007203v84.949219c13.637574 0 26.9646.391602 40.258789-.103149 15.250367-.567444 24.23816-8.386658 27.736084-23.263001.9469-4.027343 1.243409-8.207641 1.841675-13.266906zM1011.468689 1064c1.607239-7.938477 3.463257-15.942261 5.792603-23.805664 27.529724-92.933472 55.174987-185.832886 82.582336-278.80249 1.390503-4.71698 3.281982-6.0802 8.078003-6.022827 22.479248.269226 44.963623.119628 67.947632.119628 2.949096 9.760254 5.954834 19.548645 8.865356 29.365235 27.411743 92.455444 54.807129 184.915649 82.202881 277.375854.093872.317139.122437.653809.12207 1.375733-22.080444.394531-44.10144.394531-66.548095-.003907-5.837159-21.587768-11.248291-42.776977-16.690064-64.086303-29.820434 0-59.116333-.035523-88.411011.129761-1.174682.006591-3.04602 1.719543-3.394409 2.971069-2.493286 8.95813-4.75122 17.984497-6.937378 27.024658-2.765503 11.435425-5.39209 22.904663-8.078613 34.359253h-65.531311m138.161194-202.170044c-3.741211-14.819397-7.482422-29.638855-11.223633-44.458313-.31897.047302-.637939.094605-.957031.141907-10.92749 44.303283-21.854981 88.606567-32.848877 133.178711h67.151001c-7.339722-29.51471-14.620117-58.790528-22.12146-88.862305z"/>
  <path fill="#FDFDFD" d="M1680.468506 1064c-.307129-1.966064-.004761-3.932129-.004273-5.898193.022828-98.813599.019654-197.627137.01941-296.440735v-5.809021h179.130127v56.029785h-113.234986v68.999145h85.261597v49.447632h-85.112183v78.053345h117.475952c0 18.506104 0 36.593384-.002075 55.149414C1802.979126 1064 1741.95813 1064 1680.468506 1064z"/>
  <path fill="#FEFEFE" d="M1969.468628 1064c-1.42981-.932251-2.227417-2.300781-3.376587-2.731689-18.522583-6.944458-34.046265-17.959717-46.019165-33.77295-7.496094-9.90039-12.781372-20.907837-16.071533-33.406189 16.298462-5.680725 32.516479-11.333374 48.85852-17.029235 1.689087 3.662414 3.119629 7.175048 4.879517 10.514099 12.664307 24.026367 40.006348 35.23761 65.852417 27.072693 15.296753-4.832337 22.665893-20.326478 17.869263-37.622803-3.111451-11.219605-10.486817-19.440857-19.990845-25.260803-14.99646-9.183228-30.52478-17.505066-45.905274-26.052308-16.033935-8.910217-31.477905-18.468627-44.416748-31.82843-37.374145-38.590088-30.035644-119.947143 40.763184-138.63678 32.895752-8.683837 64.797607-5.155517 93.586426 14.547425 17.605957 12.049377 28.711181 29.202637 36.623535 49.255249-14.801514 6.551147-29.456543 13.037475-44.395264 19.649475-4.052002-9.735657-8.968506-18.527649-17.234985-24.883362-15.73523-12.097961-33.294312-13.921692-51.467407-7.497986-14.80066 5.231629-20.604493 26.039307-11.121827 40.0719 4.258423 6.301941 10.114624 12.201355 16.534791 16.228332 14.469116 9.075379 29.726196 16.898194 44.691894 25.177674 15.046509 8.324096 29.455444 17.481994 41.433228 30.060974 19.521972 20.501403 25.91455 45.198547 22.961181 72.666809-3.816406 35.495483-22.397217 59.613891-56.349121 71.50476-.690307.241822-1.230102.913941-1.506958 1.6792-25.021118.293945-50.375366.293945-76.198242.293945zM156.468658 1064C156 961.382751 156 858.765564 156 755.819946h71.884888v250.985169h97.68573c0 19.08966 0 37.717102.214691 56.769714C269.645782 1064 213.29155 1064 156.468658 1064z"/>
  <path fill="#FDFDFD" d="M377.468658 1064c-.306945-1.966064-.00418-3.932007-.003753-5.898071.022552-98.814698.019287-197.629334.018799-296.444031v-5.80658h65.520172c0 102.388428 0 204.799927-.001923 307.680054C421.312439 1064 399.624878 1064 377.468658 1064z"/>
  <path fill="#FCFCFC" d="M1548.46875 1064c-.416748-1.995239-.319458-3.990479-.319336-5.985718.007202-98.778076.006226-197.556152.006104-296.334228v-5.836426h65.42456c0 102.522522 0 204.912292.209961 307.729248C1592.312378 1064 1570.624878 1064 1548.46875 1064z"/>
  <path fill="#010101" d="M1077.468628 1064c2.217895-11.45459 4.844482-22.923828 7.609985-34.359253 2.186158-9.040161 4.444092-18.066528 6.937378-27.024658.348389-1.251526 2.219727-2.964478 3.394409-2.971069 29.294678-.165284 58.590577-.129761 88.411011-.129761 5.441773 21.309326 10.852905 42.498535 16.221314 64.086303C1159.312378 1064 1118.624878 1064 1077.468628 1064zM841.468628 1064C841 1023.914185 841 983.82843 841 943.171387c8.875427 0 17.475342-.163025 26.055664.173889 1.305664.051269 3.020569 2.200134 3.702698 3.750122 12.286377 27.916992 24.446045 55.88977 36.625671 83.853699 4.700012 10.791015 9.382508 21.589599 13.844483 32.717773-26.582764.33313-52.936951.33313-79.759888.33313zM1358.468628 1064c-.507935-39.785034-.54773-79.570129-.574097-119.355225-.000244-.308044.183106-.61615.455567-1.476013 8.42395 0 17.034423-.16156 25.62561.171692 1.309814.050781 3.038086 2.168274 3.717041 3.707398 12.11438 27.461364 24.107178 54.97644 36.102173 82.490356 4.903931 11.248413 9.751587 22.521362 14.415039 34.122437-26.564209.339355-52.918457.339355-79.741333.339355z"/>
  <path fill="#FEFEFE" d="M1119.360107 457.44574c2.135621-16.098664 6.504517-31.006531 14.777466-44.574616 12.157837-19.939453 29.861328-32.953644 51.981079-39.538055 27.236695-8.107575 54.865723-8.460083 82.18689-.441681 39.42102 11.56958 60.880615 39.129547 67.576538 78.811768 1.596191 9.459045 1.97583 19.207702 2.027222 28.82788.183349 34.313263.597656 68.643952-.26355 102.938263-.691528 27.542725-8.972534 52.711121-29.20874 72.660828-15.228638 15.013061-34.002686 22.96936-54.83313 26.250305-24.687866 3.888611-49.206787 3.084412-72.820923-5.709961-33.811523-12.592224-52.973877-37.806946-59.68335-72.673401-1.935791-10.060058-2.689209-20.470153-2.811279-30.733703-.358765-30.148316-.207031-60.304016-.076294-90.456024.036011-8.308197.698486-16.613648 1.148071-25.361603m150.720826-3.857239c-3.125855-14.906281-10.508789-26.644226-26.229004-29.862244-8.628418-1.766296-17.902466-1.962036-26.689575-1.026703-16.288941 1.733857-26.770264 11.483399-30.25 27.427918-2.072022 9.494018-3.131714 19.373657-3.255982 29.097717-.397827 31.13205-.242554 62.272858-.076538 93.409149.039795 7.459595.517212 14.974183 1.540283 22.360108 2.786621 20.115967 12.509766 31.794678 29.763794 35.498596 5.620972 1.206665 11.572144 1.401916 17.35083 1.248718 18.746338-.496887 31.335205-9.749511 36.275757-27.028076 1.901733-6.651123 3.268555-13.70404 3.336792-20.589111.369751-37.292603.342651-74.590271.221558-111.885437-.019165-5.939057-1.207886-11.87439-1.987915-18.650635z"/>
  <path fill="#FDFDFD" d="M445.512054 453.000305c0 42.833283-.130371 85.167298.134064 127.498902.041901 6.715087 1.031006 13.677734 3.022278 20.077819 5.154144 16.565979 19.03653 25.67212 38.937073 26.171448 5.12381.128601 10.381012-.193848 15.39032-1.219971 19.932678-4.083007 30.692504-18.42749 30.964782-41.12622.187989-15.664368.036682-31.332825.036682-46.999451.000061-53.166565-.000183-106.33313-.000183-159.499695 0-1.814117.000061-3.628265.000061-5.757751h65.515808c0 1.746185.000061 3.520385.000061 5.294586-.000488 65.833191.028321 131.666443-.019958 197.499603-.013855 18.964844-2.52063 37.500733-10.648499 54.899231-12.29364 26.31543-33.118835 42.606018-60.810546 49.803589-28.299073 7.355469-56.751709 7.034729-84.598267-2.492676-34.592285-11.835266-54.633484-36.538879-61.329224-72.134338-1.558685-8.286133-2.161163-16.863831-2.182556-25.309937-.170746-67.332763-.095428-134.666168-.09552-201.999359v-5.630768h65.683655c0 26.850312 0 53.637635-.000031 80.924988z"/>
  <path fill="#FEFEFE" d="M1736.926025 621.093384c-12.170532-22.848145-24.208984-45.351502-36.437011-68.209046-7.618531 10.784058-15.066407 21.187745-22.299439 31.73877-.916992 1.33783-.97644 3.447143-.97998 5.199951-.057007 28.324097-.040528 56.648438-.040772 84.972656 0 1.628846-.000122 3.257752-.000122 5.128846h-64.398437V372.027252h64.346191v140.770416c.290894.094849.581787.189759.872681.284607 3.899414-6.655548 7.83081-13.292694 11.693237-19.969787 22.62439-39.112305 45.247559-78.225373 67.812256-117.372193 1.402344-2.433166 2.646606-4.035034 5.974975-4.007141 22.157959.185852 44.318238.095246 66.477784.103455.948364.000366 1.896728.089294 3.550781.172424-1.329712 2.090332-2.325562 3.722077-3.384766 5.311402-28.209106 42.32315-56.384033 84.66922-84.723266 126.905059-2.078858 3.098206-2.036866 5.186768-.229126 8.33432 30.8479 53.707825 61.562378 107.492127 92.303589 161.261231 1.05896 1.851929 2.088012 3.720764 3.438842 6.131226-1.815429.086547-3.200195.209411-4.584961.210205-21.159912.012146-42.32019-.06128-63.479126.082336-3.21582.021851-4.962524-.820496-6.523803-3.812378-9.606568-18.407654-19.475708-36.678162-29.389527-55.33905zM295.168945 518.83252c19.852661 14.499633 34.849976 32.149902 39.147034 56.712402 4.827545 27.59491 1.422943 53.847229-16.467194 76.580444-12.801941 16.2677-30.311981 25.141968-50.272979 29.215882-32.532746 6.63977-63.595047 3.462951-91.846924-15.396973-20.025604-13.368347-33.106247-31.889404-39.714874-55.686951 16.208999-5.654236 32.404251-11.303711 48.870117-17.047546 1.770218 3.813843 3.238037 7.482178 5.11113 10.93042 13.447662 24.756347 39.527023 33.984741 65.598114 26.600097 14.673019-4.156066 20.118179-16.058105 18.976638-31.623779-.758972-10.349365-6.035217-18.523132-13.548767-25.329224-12.861831-11.650817-28.5009-18.828552-43.626419-26.812561-18.400787-9.71289-36.900574-19.321716-51.653671-34.433898-23.994995-24.579041-30.089386-53.973206-20.530075-86.171814 9.333359-31.437561 32.214401-49.493287 63.552261-56.163666 29.727448-6.327637 58.680329-3.346894 85.075104 13.161926 19.50058 12.196838 31.839172 30.207275 40.335998 51.826477-14.795837 6.549561-29.431976 13.028442-44.384796 19.647492-4.13327-9.897492-9.133972-18.851654-17.627685-25.214753-15.671478-11.740417-33.052063-13.59198-51.053253-7.18576-14.443711 5.140198-20.523178 25.157745-11.661347 39.234802 4.118424 6.542145 10.114166 12.635956 16.626999 16.786041 13.971909 8.90326 28.907791 16.280671 43.300827 24.540985 8.642273 4.959961 17.005127 10.406739 25.793762 15.829957z"/>
  <path fill="#FDFDFD" d="M1057.998779 371.828308h17.231568v56.026795H960.776611v74.483551h98.35669v52.528289h-98.659058v125.04303h-65.36615V371.828308h162.890686zM778.000366 502.487274c16.296143.000031 32.092224.000031 48.198731.000031v52.369507h-98.643189v125.104187h-65.515014V372.172974h180.249511v55.807953H727.693542v74.506317c16.652161 0 33.229493 0 50.306824.00003z"/>
  <path fill="#FEFEFE" d="M1532 622.998718h32.236694v56.838928h-168.957641V372.095184h63.521484v250.903534H1532z"/>
  <path fill="#010101" d="M656.9729 960.189575c-.186157 8.404358.403687 16.476929-.772277 24.283447-2.627015 17.440064-11.443665 25.447083-29.039185 26.270142-14.286377.668274-28.625244.215149-42.940796.25769-1.815491.005433-3.630981.000733-5.74884.000733v-80.002808c2.873535 0 5.805176-.01831 8.736633.003174 14.310608.105164 28.691956-.629333 42.913574.552918 16.941223 1.408264 23.175354 8.093567 26.297364 24.732238.214355 1.142823.35382 2.299683.553527 3.902466z"/>
  <path fill="#030303" d="M649.006836 837.301758c-.315735 7.766907-.018555 15.159302-1.097717 22.345032-1.970154 13.117614-10.094666 21.331054-23.257569 22.106689-15.227905.897278-30.549255.208801-46.161804.208801v-71.799743c4.429688 0 8.863464-.039856 13.296326.007995 10.321838.111328 20.713562-.448608 30.949402.559143 17.884338 1.760681 23.98175 8.310059 26.271362 26.572083z"/>
  <path fill="#010101" d="M872.969604 894.162476c-10.798706.000122-21.102478.000122-31.686767.000122V809.00116c2.351868 0 4.932373-.040772 7.511352.006897 12.467957.230468 24.975342-.050049 37.392334.87561 13.342774.994812 20.977173 9.284363 23.408631 22.105652 2.405456 12.683655 2.575744 25.505676-.285217 38.160156-3.548462 15.696106-13.253785 23.406921-29.358094 23.847595-2.162292.059143-4.324829.110413-6.982239.165406zM1427.996826 857.791626c-.596557 4.584656-.893066 8.764954-1.839966 12.792297-3.497924 14.876343-12.485717 22.695557-27.736084 23.263001-13.294189.494751-26.621215.103149-40.258789.103149v-84.949219c2.493042 0 5.244263-.041931 7.993775.007203 12.313476.220214 24.723022-.410767 36.914917.929077 14.624389 1.607239 21.989013 9.730469 23.823974 24.479187.940918 7.562256.771607 15.262695 1.102173 23.375305z"/>
  <path fill="#030303" d="M1149.740479 862.227966c7.390747 29.673767 14.671142 58.949585 22.010864 88.464295h-67.151001c10.993896-44.572144 21.921387-88.875428 32.848877-133.178711.319092-.047302.638061-.094605.957031-.141907 3.741211 14.819458 7.482422 29.638916 11.334229 44.856323z"/>
  <path fill="#010101" d="M1270.146973 454.008118c.713989 6.356628 1.90271 12.291961 1.921875 18.231018.121093 37.295166.148193 74.592834-.221558 111.885437-.068237 6.885071-1.435059 13.937988-3.336792 20.589111-4.940552 17.278565-17.529419 26.531189-36.275757 27.028076-5.778686.153198-11.729858-.042053-17.35083-1.248718-17.254028-3.703918-26.977173-15.382629-29.763794-35.498596-1.023071-7.385925-1.500488-14.900513-1.540283-22.360108-.166016-31.136291-.321289-62.277099.076538-93.409149.124268-9.72406 1.18396-19.603699 3.255982-29.097717 3.479736-15.944519 13.961059-25.694061 30.25-27.427918 8.787109-.935333 18.061157-.739593 26.689575 1.026703 15.720215 3.218018 23.103149 14.955963 26.295044 30.281861z"/>
</svg>
